<?xml version="1.0" encoding="utf-8"?>
<!-- Generator: Adobe Illustrator 27.6.1, SVG Export Plug-In . SVG Version: 6.00 Build 0)  -->
<svg version="1.1" id="Camada_1" xmlns="http://www.w3.org/2000/svg" xmlns:xlink="http://www.w3.org/1999/xlink" x="0px" y="0px"
	 viewBox="0 0 147.26 155.03" style="enable-background:new 0 0 147.26 155.03;" xml:space="preserve">
<style type="text/css">
	.st0{fill:none;stroke:#000000;stroke-width:0.5;stroke-miterlimit:10;}
	.st1{clip-path:url(#SVGID_00000134234495766693846620000015456475072870578836_);}
	.st2{fill:#E6F0F8;}
	.st3{clip-path:url(#SVGID_00000146488230385452751690000016155894153927877773_);}
	.st4{fill:url(#SVGID_00000181771537543951555820000010273335137430268043_);}
	.st5{fill:url(#SVGID_00000057137833866642727790000008499845953832507275_);}
	.st6{fill:url(#SVGID_00000149360659247232659550000016882258653168558486_);}
	.st7{fill:url(#SVGID_00000062178100417261297020000009561324793822206125_);}
	.st8{fill:url(#SVGID_00000144329457119695355390000017281858413422722217_);}
	.st9{fill:url(#SVGID_00000168089304363368460710000006792119085935846070_);}
	.st10{fill:url(#SVGID_00000057832701055644724900000010927783945986717590_);}
	.st11{fill:url(#SVGID_00000004504162014813399480000006758499935121882259_);}
	.st12{fill:url(#SVGID_00000060724006497842844080000014169326016684670627_);}
	.st13{fill:url(#SVGID_00000034781212263584523290000007451199916168176016_);}
	.st14{fill:url(#SVGID_00000043446157374038875850000007456867774858629305_);}
	.st15{fill:url(#SVGID_00000018953419925880081860000015297602959146861700_);}
	.st16{fill:url(#SVGID_00000089564536702685319800000012274915040843953287_);}
	.st17{fill:url(#SVGID_00000098936808365438701580000011421753838049278123_);}
	.st18{fill:url(#SVGID_00000142137056557391080740000015621724434695366027_);}
	.st19{fill:url(#SVGID_00000009583474905833003530000000878923903752261822_);}
	.st20{fill:url(#SVGID_00000168099935250576662740000002592500275193068464_);}
	.st21{fill:url(#SVGID_00000016788290133076056110000008200587248164170634_);}
	.st22{fill:#8580BC;}
	.st23{fill:url(#SVGID_00000123404388501187244460000018100230887665500545_);}
	.st24{fill:url(#SVGID_00000111191961091352545950000012777784845352047503_);}
	.st25{fill:url(#SVGID_00000005960303813296948350000001563738850860170127_);}
	.st26{fill:url(#SVGID_00000067233715986998461480000017747401900729342871_);}
	.st27{fill:url(#SVGID_00000130606135002100136220000004370341074295598256_);}
	.st28{fill:url(#SVGID_00000136397917761652135760000017759026465671861929_);}
	.st29{fill:url(#SVGID_00000051357185086514149080000004921468945702271367_);}
	.st30{fill:url(#SVGID_00000117644529374540379950000011976942625288181657_);}
	.st31{fill:url(#SVGID_00000136378189066464867010000011441286401877397905_);}
	.st32{fill:url(#SVGID_00000107548599455193123420000012678490694365903018_);}
	.st33{fill:url(#SVGID_00000107570328199388281790000009874448563206417817_);}
	.st34{fill:url(#SVGID_00000172408576501364106470000013633978099803840436_);}
	.st35{fill:url(#SVGID_00000090986207014353749480000000156858715728651661_);}
	.st36{fill:url(#SVGID_00000121962774838139946810000012548569516413040573_);}
	.st37{fill:url(#SVGID_00000060001807974358548370000005955184660591664768_);}
	.st38{fill:url(#SVGID_00000055706515189420973700000003510517463322918324_);}
	.st39{fill:url(#SVGID_00000010271557396850587410000005277989945854843821_);}
	.st40{fill:url(#SVGID_00000125566105855619231230000002639335138649061548_);}
	.st41{fill:url(#SVGID_00000073721437437053968570000017545303587581981836_);}
	.st42{fill:url(#SVGID_00000156572804046359549070000003233588478670172056_);}
	.st43{fill:url(#SVGID_00000101813190613147364630000006923020384627552899_);}
	.st44{fill:url(#SVGID_00000085935710068979953060000003829485312973224630_);}
	.st45{fill:url(#SVGID_00000134208157731046311550000016565931095976355220_);}
	.st46{fill:url(#SVGID_00000022542843283591844620000002415906634665924483_);}
	.st47{fill:url(#SVGID_00000177468110516058284860000004601373006810961314_);}
	.st48{fill:url(#SVGID_00000111898742580969498860000014376680776591951023_);}
	.st49{fill:url(#SVGID_00000119116872171097922290000009041206037523400841_);}
	.st50{fill:url(#SVGID_00000110472454769220903010000005353107436344205734_);}
	.st51{fill:url(#SVGID_00000057136216994348382710000017772098149065601957_);}
	.st52{fill:url(#SVGID_00000083049429191944032080000000075039144916840126_);}
	.st53{fill:url(#SVGID_00000142861025355500853040000003912205775374094219_);}
	.st54{fill:url(#SVGID_00000084509934621843530810000007605650750777105551_);}
	.st55{fill:url(#SVGID_00000109009398019247219080000006713167598634197425_);}
	.st56{fill:url(#SVGID_00000033353131863147383870000013297987433615801493_);}
	.st57{fill:url(#SVGID_00000066482379412554365440000011807896568493983645_);}
	.st58{fill:url(#SVGID_00000085972190365404808720000008170987047342617988_);}
	.st59{fill:url(#SVGID_00000138539252134495605240000003569737500280727958_);}
	.st60{fill:url(#SVGID_00000153695201024533416670000017572798746514110655_);}
	.st61{fill:url(#SVGID_00000183230337322946632540000015265846137823099533_);}
	.st62{fill:url(#SVGID_00000119825763292360019370000005096283651142163075_);}
	.st63{fill:url(#SVGID_00000114777483838849467530000005105034538531723146_);}
	.st64{fill:url(#SVGID_00000147204634499871466340000000770092481524598701_);}
	.st65{fill:url(#SVGID_00000052105225721769425550000012379938554680631945_);}
	.st66{fill:url(#SVGID_00000113312842788871703900000012575799703232958381_);}
	.st67{fill:url(#SVGID_00000085931728119245798230000001001999943925180302_);}
	.st68{fill:url(#SVGID_00000054965086508973239900000008138934398135406519_);}
	.st69{fill:url(#SVGID_00000157285596711100038970000007240167945384790687_);}
	.st70{fill:url(#SVGID_00000008835975752917319000000012368784975589802627_);}
	.st71{fill:url(#SVGID_00000023996510537762095150000012168149243772346003_);}
	.st72{fill:url(#SVGID_00000052062490159000907830000004333253994206284725_);}
	.st73{fill:url(#SVGID_00000128465540325000221400000011951823451599784886_);}
	.st74{fill:url(#SVGID_00000173853685888455545810000012672782123952362624_);}
	.st75{fill:url(#SVGID_00000056401038877372936650000014032353592547987342_);}
	.st76{fill:url(#SVGID_00000143585786050463503210000001409466261588497849_);}
	.st77{fill:#ABE0F9;}
	.st78{fill:#E9F1F2;}
	.st79{fill:#D3E3F4;}
	.st80{fill:none;stroke:#E9F1F2;stroke-miterlimit:10;}
	.st81{fill:none;stroke:#8580BC;stroke-width:0.4532;stroke-miterlimit:10;}
	.st82{fill:none;stroke:#8580BC;stroke-width:0.4532;stroke-linecap:round;stroke-linejoin:round;stroke-miterlimit:10;}
	.st83{fill:none;stroke:#8580BC;stroke-miterlimit:10;}
	.st84{fill:#4078F7;}
	.st85{fill:#FE1309;}
	.st86{fill:#6D98F7;}
	.st87{fill:#FEA02C;}
	.st88{fill:#02B155;}
	.st89{fill:#FEBC02;}
	.st90{fill:#A6AFB8;}
	.st91{fill:#1968F6;}
	.st92{fill:#FEFEFE;}
	.st93{fill:url(#SVGID_00000168827947848953468100000001273356574157827472_);}
	.st94{fill:url(#SVGID_00000072975347424497052000000010094009628299056812_);}
	.st95{fill:url(#SVGID_00000068662851939632484850000012211678988604171415_);}
	.st96{fill:url(#SVGID_00000181780235608945605710000004318004556594617737_);}
	.st97{fill:url(#SVGID_00000159437485436858100630000008237181564293040560_);}
	.st98{fill:url(#SVGID_00000119105328106207639650000015211457265616396719_);}
	.st99{fill:url(#SVGID_00000113352214364220196050000017871148328212081541_);}
	.st100{fill:url(#SVGID_00000138532021378397167290000011087074209726468225_);}
	.st101{fill:url(#SVGID_00000136391068403065221750000001091511464676235958_);}
	.st102{fill:url(#SVGID_00000086685808564039701200000008153041626643519640_);}
	.st103{fill:url(#SVGID_00000060015282013671774840000008420353382337532083_);}
	.st104{fill:url(#SVGID_00000178926010938288851610000010154180664105960346_);}
	.st105{fill:url(#SVGID_00000107550251160272496870000018285049389130710438_);}
	.st106{fill:url(#SVGID_00000042719429664782149850000007689490155396162435_);}
	.st107{fill:url(#SVGID_00000054944514656588959800000017966183507811133371_);}
	.st108{fill:url(#SVGID_00000157287042037928286040000012821157296037330055_);}
	.st109{fill:url(#SVGID_00000140698967978154939610000004242009147960665745_);}
	.st110{fill:url(#SVGID_00000178921667893261042440000011573909976583312813_);}
	.st111{clip-path:url(#SVGID_00000152255784286929287870000010594332241410380447_);}
	.st112{fill:url(#SVGID_00000088854988468596474560000002330651458259367574_);}
	.st113{fill:url(#SVGID_00000065788338270550063460000012743730248049120171_);}
	.st114{fill:url(#SVGID_00000141417992936045521620000004403861209164879012_);}
	.st115{fill:url(#SVGID_00000008141191274745999860000002347046522468436620_);}
	.st116{fill:url(#SVGID_00000172437059493385219680000006478006573740703165_);}
	.st117{fill:url(#SVGID_00000109026404856630467740000002437132721564802468_);}
	.st118{fill:url(#SVGID_00000076570507117728587230000017434990722496312224_);}
	.st119{fill:url(#SVGID_00000149344887139642496380000016782097927923281333_);}
	.st120{fill:url(#SVGID_00000081627630691431577480000003846149116462475184_);}
	.st121{fill:url(#SVGID_00000112593458682020511930000005190350029455608200_);}
	.st122{fill:url(#SVGID_00000107557807933447752210000008836035911465974960_);}
	.st123{fill:url(#SVGID_00000109744532516744173710000017191193470684631195_);}
	.st124{fill:url(#SVGID_00000048468909195246691820000005744934528512320390_);}
	.st125{fill:url(#SVGID_00000106855018471763978640000010426033652527828140_);}
	.st126{fill:url(#SVGID_00000161590553544544920480000013455280037055017146_);}
	.st127{fill:url(#SVGID_00000024690149521347597130000002428229202841387441_);}
	.st128{fill:url(#SVGID_00000083789356577933610260000012258098567473916852_);}
	.st129{fill:url(#SVGID_00000105401723094732874420000016384210212378460845_);}
	.st130{clip-path:url(#SVGID_00000059306033176365584300000002200643291983085220_);}
	.st131{fill:none;stroke:#D3E3F4;stroke-width:0.5;stroke-miterlimit:10;}
	.st132{fill:url(#SVGID_00000036940266644099709810000017864211709977141918_);}
	.st133{fill:url(#SVGID_00000162342805196126474070000015439302686038654620_);}
	.st134{fill:url(#SVGID_00000004530022296645058340000002275478726432850347_);}
	.st135{fill:url(#SVGID_00000106119413201647522900000004183521195764386438_);}
	.st136{fill:url(#SVGID_00000098918421906929555620000006898863243324103053_);}
	.st137{fill:url(#SVGID_00000157309648108053526710000014236953502576499864_);}
	.st138{fill:url(#SVGID_00000040548011885121845040000010232779838153838208_);}
	.st139{fill:url(#SVGID_00000114773278252306351110000018125284845311322535_);}
	.st140{fill:url(#SVGID_00000171701411320204990970000011550514506030988455_);}
	.st141{fill:url(#SVGID_00000169522932626844778320000002238127314530250939_);}
	.st142{fill:url(#SVGID_00000085973120261801021740000004110829107088762549_);}
	.st143{fill:url(#SVGID_00000094594484561163814010000015419277814535987098_);}
	.st144{fill:url(#SVGID_00000139985226603284566630000001017457049823224732_);}
	.st145{fill:url(#SVGID_00000059307354471511673780000004177781032764077714_);}
	.st146{fill:url(#SVGID_00000168822563053182476200000014712275731750514560_);}
	.st147{fill:url(#SVGID_00000021108278937443693790000000212849194886427563_);}
	.st148{fill:url(#SVGID_00000073002886883849638730000017954185702201242271_);}
	.st149{fill:url(#SVGID_00000108274280272005343910000008554510660692948912_);}
	.st150{fill:none;stroke:#8580BC;stroke-width:0.294;stroke-linecap:round;stroke-linejoin:round;stroke-miterlimit:10;}
	.st151{fill:none;stroke:#8580BC;stroke-width:0.294;stroke-miterlimit:10;}
	.st152{fill:none;stroke:#8580BC;stroke-width:0.2811;stroke-linecap:round;stroke-linejoin:round;stroke-miterlimit:10;}
	.st153{fill:url(#SVGID_00000118371987832659418850000004135970343305417902_);}
	.st154{fill:url(#SVGID_00000101801095683618430700000001254925531045574583_);}
	.st155{fill:url(#SVGID_00000152976289929886715160000014008226797738009997_);}
	.st156{fill:url(#SVGID_00000090980258062590039720000009726029375913589636_);}
	.st157{fill:url(#SVGID_00000176001394244594424370000013440913074974422960_);}
	.st158{fill:url(#SVGID_00000108311332876206509650000013714297757202789790_);}
	.st159{fill:url(#SVGID_00000110462029833065225540000003122027608111582634_);}
	.st160{fill:url(#SVGID_00000081639843878598310220000003767581138143950990_);}
	.st161{fill:url(#SVGID_00000014632569253943176900000012993616113099784071_);}
	.st162{fill:url(#SVGID_00000152981761604301032780000014379094951550971053_);}
	.st163{fill:url(#SVGID_00000012442021108267051820000010720821247142995640_);}
	.st164{fill:url(#SVGID_00000096035670180017801530000009464418048370772370_);}
	.st165{fill:url(#SVGID_00000041260543720735878100000009832456827768723388_);}
	.st166{fill:url(#SVGID_00000100379232573200744380000008170324681434778542_);}
	.st167{fill:url(#SVGID_00000137120032327015696460000002537979857702849960_);}
	.st168{fill:url(#SVGID_00000121981913203054841280000003908270523235416249_);}
	.st169{fill:url(#SVGID_00000103233390450237781740000016207721271989276048_);}
	.st170{fill:url(#SVGID_00000062898042731038613480000002940328571939596464_);}
	.st171{fill:#CED4E9;}
	.st172{fill:#B6B8DA;}
	.st173{fill:#9D9CCB;}
	.st174{opacity:0.35;}
	.st175{fill:url(#SVGID_00000107587229798356039670000004097944036717133717_);}
	.st176{fill:url(#SVGID_00000018195230796886052790000015209049574117156795_);}
	.st177{fill:url(#SVGID_00000144317840395254380680000017497706264982551959_);}
	.st178{fill:url(#SVGID_00000045600567833413807690000006319834969670141582_);}
	.st179{fill:url(#SVGID_00000007416953475962478060000016174837530399660954_);}
	.st180{fill:url(#SVGID_00000109000140349252845480000004877339325312921763_);}
	.st181{fill:url(#SVGID_00000035528162625015022190000004647193478267034272_);}
	.st182{fill:url(#SVGID_00000114775498203289126750000018377019783447913140_);}
	.st183{fill:none;stroke:#D3E3F4;stroke-width:0.5975;stroke-miterlimit:10;}
	.st184{fill:#E6F0F8;stroke:#E6F0F8;stroke-width:0.9079;stroke-miterlimit:10;}
	.st185{opacity:0.35;fill:url(#SVGID_00000058554550214173120680000002691921704693337782_);}
	.st186{opacity:0.35;fill:url(#SVGID_00000022533632646003421460000009822877876336493701_);}
	.st187{opacity:0.35;fill:url(#SVGID_00000035505101132532062670000009844878820411126661_);}
	.st188{opacity:0.35;fill:url(#SVGID_00000111876512333670239710000015137236834748278941_);}
	.st189{fill:none;stroke:#8580BC;stroke-width:0.8751;stroke-miterlimit:10;}
	.st190{fill:#E6F0F8;stroke:#E6F0F8;stroke-width:0.812;stroke-miterlimit:10;}
	.st191{fill:none;stroke:#8580BC;stroke-width:0.7827;stroke-miterlimit:10;}
	.st192{fill:none;stroke:#8580BC;stroke-width:0.5;stroke-miterlimit:10;}
	.st193{fill:url(#SVGID_00000099649539801374520850000005153267227566257061_);}
	.st194{fill:url(#SVGID_00000067209755548180397650000013646911432835119775_);}
	.st195{fill:url(#SVGID_00000080166429268881555190000012260233352751327109_);}
	.st196{fill:url(#SVGID_00000032641899424844811130000014163721561244651196_);}
	.st197{fill:url(#SVGID_00000181776592439001678670000015100541954233984405_);}
	.st198{fill:url(#SVGID_00000029759325265885033160000012758591017934631303_);}
	.st199{fill:url(#SVGID_00000082344727995002763640000016209109908625197460_);}
	.st200{fill:url(#SVGID_00000107547764142097382390000006553861160643829893_);}
	.st201{fill:url(#SVGID_00000041259599251092659910000001966907243019291309_);}
	.st202{fill:url(#SVGID_00000128480894904394062670000009105137050631097744_);}
	.st203{fill:url(#SVGID_00000178904233838617700090000008108520862418654655_);}
	.st204{fill:url(#SVGID_00000078735133599969307030000014584127014653655686_);}
	.st205{fill:url(#SVGID_00000147940204074066724300000005251942064891159465_);}
	.st206{fill:url(#SVGID_00000105391273355571249590000014587118120610109580_);}
	.st207{fill:url(#SVGID_00000011010356868717597760000005587545804954167997_);}
	.st208{fill:url(#SVGID_00000009568546526539473370000004208019945865897097_);}
	.st209{fill:url(#SVGID_00000077294861669130759900000008976956851163439746_);}
	.st210{fill:url(#SVGID_00000069375544220481873610000014160379700421773749_);}
	.st211{fill:none;stroke:#8580BC;stroke-width:0.5599;stroke-miterlimit:10;}
	.st212{fill:none;stroke:#E9F1F2;stroke-width:0.75;stroke-linecap:round;stroke-linejoin:round;stroke-miterlimit:10;}
	.st213{fill:url(#SVGID_00000086671191300427488740000012862352463582652035_);}
	.st214{fill:url(#SVGID_00000072958329710123667050000006318784045950517124_);}
	.st215{fill:url(#SVGID_00000070091517550927185240000004455060828803786658_);}
	.st216{fill:url(#SVGID_00000174596255693751892900000004338428492908471469_);}
	.st217{fill:url(#SVGID_00000080187253949259633540000011277094000710760597_);}
	.st218{fill:url(#SVGID_00000154407630649298263940000007115955312992532098_);}
	.st219{fill:url(#SVGID_00000165234837259647428810000014525882894621539479_);}
	.st220{fill:url(#SVGID_00000090268528324971414220000004605492385467101364_);}
	.st221{fill:url(#SVGID_00000082340155335649545750000011016846458805421185_);}
	.st222{fill:url(#SVGID_00000101804675020783637140000006718262868223986350_);}
	.st223{fill:url(#SVGID_00000050629761064836342850000012057250884064386717_);}
	.st224{fill:url(#SVGID_00000101087885247699436880000008479356527498394512_);}
	.st225{fill:url(#SVGID_00000073686990484339924460000004856892165047350930_);}
	.st226{fill:url(#SVGID_00000141456543279014018440000002336189954393223097_);}
	.st227{fill:url(#SVGID_00000060735224042129924540000002614347761669702053_);}
	.st228{fill:url(#SVGID_00000114058503302129060500000007747772693774186899_);}
	.st229{fill:url(#SVGID_00000043439087801902926440000010262236652934250118_);}
	.st230{fill:url(#SVGID_00000076570476361104749170000009211895309580036229_);}
	.st231{fill:none;stroke:#E9F1F2;stroke-width:0.8319;stroke-miterlimit:10;}
	.st232{fill:none;stroke:#E9F1F2;stroke-width:0.795;stroke-miterlimit:10;}
	.st233{clip-path:url(#SVGID_00000164514674136838575410000001942187705227051949_);}
	.st234{fill:url(#SVGID_00000126289423717554462830000005035671259354917043_);}
	.st235{fill:url(#SVGID_00000145042051027915459030000009353641721306723000_);}
	.st236{fill:url(#SVGID_00000125599542935786718060000009192604989261179268_);}
	.st237{fill:url(#SVGID_00000094592392105136067790000005188336579888010122_);}
	.st238{fill:url(#SVGID_00000078735863926582010620000014504901805561884857_);}
	.st239{fill:url(#SVGID_00000152974593940539534370000000792627789092936113_);}
	.st240{fill:url(#SVGID_00000120543578618398883380000005173487870106866089_);}
	.st241{fill:url(#SVGID_00000158001459807484591630000016739640106885409930_);}
	.st242{fill:url(#SVGID_00000073686216194834529190000001184184746104663684_);}
	.st243{fill:url(#SVGID_00000031920003731347404780000016881579780486840504_);}
	.st244{fill:url(#SVGID_00000133507279915125457490000013332988216451700624_);}
	.st245{fill:url(#SVGID_00000109739043505972674060000004458129232679872666_);}
	.st246{fill:url(#SVGID_00000168116747352759675200000007573507061312770725_);}
	.st247{fill:url(#SVGID_00000076594422516309657630000005837160139143924873_);}
	.st248{fill:url(#SVGID_00000137815476611050817290000008179760965186981796_);}
	.st249{fill:url(#SVGID_00000057842210937883516440000016795079985344675225_);}
	.st250{fill:url(#SVGID_00000147937023972168292440000016598075045951127170_);}
	.st251{fill:url(#SVGID_00000071520172992013303000000008744721390677663384_);}
	.st252{fill:#FFFFFF;}
	.st253{fill:url(#SVGID_00000044167654112266171650000011505755121840474274_);}
	.st254{fill:url(#SVGID_00000134943036312893426060000005202637749142356666_);}
	.st255{fill:url(#SVGID_00000136413357254426148670000007509207429312372870_);}
	.st256{fill:url(#SVGID_00000044140124012405401120000010398108667203377312_);}
	.st257{fill:url(#SVGID_00000109741694844664645450000005222761975506016406_);}
	.st258{fill:url(#SVGID_00000129187917708785308210000013613573000527782533_);}
	.st259{fill:url(#SVGID_00000166645910177706148090000013512607156585366458_);}
	.st260{fill:url(#SVGID_00000086656014849575912540000002985644864614348418_);}
	.st261{fill:url(#SVGID_00000025409575299324843450000011914973602259629462_);}
	.st262{fill:url(#SVGID_00000056421544057080569990000015187191756961204629_);}
	.st263{fill:url(#SVGID_00000107559251259001262020000000935227498805298820_);}
	.st264{fill:url(#SVGID_00000150781140242945608870000009077945701437927828_);}
	.st265{fill:url(#SVGID_00000042017103004696613630000002505976228691551139_);}
	.st266{fill:url(#SVGID_00000118394674806823732140000008905417448444333748_);}
	.st267{fill:url(#SVGID_00000176739027099069818030000005689080461809350272_);}
	.st268{fill:url(#SVGID_00000135676227401622533700000010891677272586015155_);}
	.st269{fill:url(#SVGID_00000175312041372165204320000006441215440839008399_);}
	.st270{fill:url(#SVGID_00000150814795535621166400000000528995548094706069_);}
	.st271{fill:url(#SVGID_00000072243567714557846480000006335028240752811669_);}
	.st272{fill:url(#SVGID_00000039119261973848519870000001417159335687678129_);}
	.st273{fill:url(#SVGID_00000154387426555990860650000012817512310837920908_);}
	.st274{fill:url(#SVGID_00000035530041861993603660000013661365850883281309_);}
	.st275{fill:url(#SVGID_00000113322648071072419560000005503272727758305723_);}
	.st276{fill:url(#SVGID_00000129907047172709753750000014797746178172490401_);}
	.st277{fill:url(#SVGID_00000099654411622797126560000000254437187593342595_);}
	.st278{fill:url(#SVGID_00000109737201341250430940000015843105461212106897_);}
	.st279{fill:url(#SVGID_00000136388033051179264050000014807124473397139104_);}
	.st280{fill:url(#SVGID_00000181781498831091201650000004484995788335546806_);}
	.st281{fill:url(#SVGID_00000088101140434920757340000003813507187799311496_);}
	.st282{fill:url(#SVGID_00000161612896463209206480000010207604630751663507_);}
	.st283{fill:url(#SVGID_00000009589789847740922610000016408086081446974603_);}
	.st284{fill:url(#SVGID_00000003065749556576145270000011218288331427723143_);}
	.st285{fill:url(#SVGID_00000123410491523879663750000001159780458692022952_);}
	.st286{fill:url(#SVGID_00000011730630247039443030000014320173527248399785_);}
	.st287{fill:url(#SVGID_00000084516507111388627900000017940415408639929486_);}
	.st288{fill:url(#SVGID_00000056408603101676609020000003975063352017707404_);}
	.st289{fill:#E9F1F2;stroke:#E9F1F2;stroke-width:0.8319;stroke-miterlimit:10;}
	.st290{fill:#E9F1F2;stroke:#E9F1F2;stroke-width:0.8706;stroke-miterlimit:10;}
	.st291{fill:#E9F1F2;stroke:#E9F1F2;stroke-width:0.8723;stroke-miterlimit:10;}
	.st292{fill:#E9F1F2;stroke:#E9F1F2;stroke-width:0.8745;stroke-miterlimit:10;}
	.st293{fill:url(#SVGID_00000039128084720830951350000010498430550802577574_);}
	.st294{fill:url(#SVGID_00000168818909193891055480000016730197134841047681_);}
	.st295{fill:url(#SVGID_00000065050280194976424590000002627399139673799066_);}
	.st296{fill:url(#SVGID_00000008866733446026552130000017635813023911333509_);}
	.st297{fill:url(#SVGID_00000147221167408531560830000000715144781662139016_);}
	.st298{fill:url(#SVGID_00000053527566411565259430000004618351343423081377_);}
	.st299{fill:url(#SVGID_00000034771918827267724990000002704564420167376808_);}
	.st300{fill:url(#SVGID_00000084513955822201824570000016261841829262822048_);}
	.st301{fill:url(#SVGID_00000090284630504614161230000007045923763362303671_);}
	.st302{fill:url(#SVGID_00000152244310203455418180000014867366822852743057_);}
	.st303{fill:url(#SVGID_00000085935683711842723050000008210850835466560682_);}
	.st304{fill:url(#SVGID_00000175291916578686258630000015522352023459097006_);}
	.st305{fill:url(#SVGID_00000023968345385783695770000017166612779529340328_);}
	.st306{fill:url(#SVGID_00000061438215902175104470000011488462560299849388_);}
	.st307{fill:url(#SVGID_00000176725051886146828870000012283640770498730418_);}
	.st308{fill:url(#SVGID_00000181790898514822859740000006329363763566290623_);}
	.st309{fill:url(#SVGID_00000081607311158845484650000005698794396088718747_);}
	.st310{fill:url(#SVGID_00000046311154343548726120000016801902838676677284_);}
	.st311{opacity:0.5;fill:url(#SVGID_00000043430232596430261570000008547484625550546338_);}
	.st312{opacity:0.5;fill:url(#SVGID_00000044141540112048243260000011489251488599451316_);}
</style>
<g>
	<g>
		<g>
			
				<linearGradient id="SVGID_00000163793378629119338420000012256412607431563660_" gradientUnits="userSpaceOnUse" x1="40.7612" y1="127.8907" x2="40.7612" y2="26.1034">
				<stop  offset="8.524463e-07" style="stop-color:#E8F1F2"/>
				<stop  offset="1" style="stop-color:#D3E3F4"/>
			</linearGradient>
			<path style="fill:url(#SVGID_00000163793378629119338420000012256412607431563660_);" d="M30.45,55.45
				c-0.1,0.34-0.26,0.64-0.48,0.91c0.48,0,0.97,0.03,1.46,0.12C31.08,56.16,30.75,55.81,30.45,55.45z M52.53,25.43
				c-5.6,0-10.47,3.09-13.02,7.66l0,0c-0.32,0.57-0.6,1.16-0.84,1.77c-0.86,0.02-1.69,0.12-2.5,0.29
				c-6.12,1.28-10.71,6.73-10.71,13.22c0,1.51,0.24,2.95,0.7,4.3c0.18,0.53,0.4,1.05,0.64,1.54c-0.53,0.1-1.05,0.23-1.57,0.38
				c-6.44,1.93-11.16,7.92-11.16,15.01c0,1.49,0.21,2.93,0.6,4.29c0.43,1.52,1.1,2.95,1.94,4.23c-0.61,0.89-1.12,1.85-1.52,2.86
				c-0.63,1.59-0.97,3.32-0.97,5.12c0,6.58,4.54,12.11,10.64,13.61c0.38,0.1,0.76,0.17,1.16,0.23c-0.11,0.25-0.22,0.5-0.32,0.75
				c0,0.01,0,0.02-0.01,0.02c-0.07,0.19-0.14,0.38-0.2,0.57c-0.46,1.39-0.71,2.88-0.71,4.43c0,7.13,5.35,13.05,12.26,13.91
				c0.42,0.06,0.86,0.09,1.3,0.11c0.19,0.53,0.42,1.05,0.67,1.55c2.32,4.64,7.01,7.93,12.49,8.28c0.33,0.02,0.65,0.03,0.99,0.03
				c0.49,0,0.98-0.02,1.46-0.07c7.65-0.74,13.64-7.21,13.64-15.03V40.35C67.46,32.12,60.76,25.43,52.53,25.43z M65.01,114.51
				c0,6.44-4.84,11.78-11.08,12.55c-0.04,0.01-0.08,0.01-0.13,0.02c-0.47,0.06-0.95,0.08-1.44,0.08c-0.29,0-0.58-0.01-0.87-0.03
				c-0.05,0-0.09,0-0.13-0.01c-4.47-0.35-8.28-3.03-10.23-6.82c-0.12-0.23-0.23-0.47-0.34-0.71c-0.08-0.17-0.16-0.35-0.23-0.53
				c-0.25-0.63-0.44-1.28-0.55-1.96c-0.37,0.04-0.76,0.07-1.15,0.07h-0.15c-0.34,0-0.7-0.02-1.05-0.04c-0.05,0-0.1,0-0.15-0.01
				c-5.76-0.61-10.28-5.5-10.28-11.4c0-1.1,0.16-2.18,0.46-3.19c0.2-0.68,0.46-1.33,0.77-1.95c0.07-0.15,0.16-0.3,0.24-0.45
				c0.43-0.79,0.96-1.51,1.57-2.18c0.09-0.1,0.18-0.19,0.28-0.29c0.1-0.1,0.2-0.2,0.3-0.3c-0.08,0.02-0.16,0.05-0.24,0.06
				c-0.06,0.02-0.13,0.03-0.2,0.05c-0.72,0.17-1.47,0.23-2.25,0.23c-0.22,0-0.42,0-0.63-0.01c-0.1-0.01-0.19-0.02-0.29-0.03
				c-0.6-0.05-1.2-0.14-1.77-0.28c-5.1-1.21-8.9-5.81-8.9-11.27c0-1.43,0.25-2.8,0.73-4.07c0.24-0.65,0.55-1.28,0.91-1.87
				c0.19-0.34,0.41-0.66,0.63-0.97c0.17-0.22,0.34-0.43,0.52-0.64c0.11-0.13,0.22-0.25,0.34-0.37c-0.51-0.6-0.95-1.22-1.34-1.91
				c-0.03-0.04-0.05-0.08-0.07-0.12c-0.02-0.04-0.05-0.08-0.07-0.12c-0.62-1.08-1.08-2.27-1.36-3.51c-0.22-0.94-0.33-1.93-0.33-2.94
				c0-6.11,4.15-11.27,9.78-12.78c0.56-0.15,1.13-0.27,1.71-0.34c0.05-0.01,0.09-0.01,0.14-0.02c0.54-0.07,1.07-0.1,1.61-0.1
				c0.07,0,0.15,0,0.23,0c0.48,0,0.97,0.03,1.46,0.12c-0.35-0.32-0.68-0.66-0.98-1.03c-0.01-0.01-0.03-0.03-0.04-0.05
				c-0.38-0.46-0.71-0.95-1.01-1.47c-0.34-0.58-0.63-1.2-0.86-1.85c-0.42-1.16-0.65-2.42-0.65-3.72c0-5.34,3.8-9.83,8.86-10.87
				c0,0,0,0,0.01,0c0.37-0.08,0.76-0.13,1.15-0.17c0.23-0.01,0.45-0.03,0.67-0.04c0.13,0,0.27-0.01,0.41-0.01
				c0.49,0,0.98,0.02,1.44,0.1c0.1-0.43,0.22-0.86,0.37-1.26c0.13-0.37,0.29-0.73,0.46-1.09c0.04-0.09,0.09-0.18,0.13-0.27h0
				c2.05-4.08,6.28-6.89,11.15-6.89c4.44,0,8.34,2.32,10.54,5.81c0.46,0.71,0.84,1.48,1.14,2.28c0.41,1.08,0.67,2.22,0.76,3.42
				c0.03,0.32,0.04,0.64,0.04,0.96V114.51z"/>
		</g>
		<g>
			
				<linearGradient id="SVGID_00000106138968682508515140000015363293720697029250_" gradientUnits="userSpaceOnUse" x1="41.6642" y1="127.892" x2="41.6642" y2="26.1054">
				<stop  offset="8.524463e-07" style="stop-color:#E8F1F2"/>
				<stop  offset="1" style="stop-color:#D3E3F4"/>
			</linearGradient>
			<polygon style="fill:url(#SVGID_00000106138968682508515140000015363293720697029250_);" points="65.64,107.72 16.41,77.73 
				64.18,32.65 65.85,34.43 20.42,77.31 66.92,105.63 			"/>
		</g>
		<g>
			
				<linearGradient id="SVGID_00000168836847715277680150000016976631665381602177_" gradientUnits="userSpaceOnUse" x1="42.6768" y1="127.892" x2="42.6768" y2="26.1054">
				<stop  offset="8.524463e-07" style="stop-color:#E8F1F2"/>
				<stop  offset="1" style="stop-color:#D3E3F4"/>
			</linearGradient>
			<polygon style="fill:url(#SVGID_00000168836847715277680150000016976631665381602177_);" points="18.68,78.71 18.16,76.33 
				64,66.32 37.91,36.53 39.74,34.92 67.2,66.26 66.54,68.26 			"/>
		</g>
		<g>
			
				<linearGradient id="SVGID_00000123434381980246552770000004863911064855624844_" gradientUnits="userSpaceOnUse" x1="46.4432" y1="127.892" x2="46.4432" y2="26.1054">
				<stop  offset="8.524463e-07" style="stop-color:#E8F1F2"/>
				<stop  offset="1" style="stop-color:#D3E3F4"/>
			</linearGradient>
			<polygon style="fill:url(#SVGID_00000123434381980246552770000004863911064855624844_);" points="25.58,100.72 65.25,38.96 
				67.31,40.27 30.2,98.04 66.22,96.22 66.34,98.66 			"/>
		</g>
		<g>
			
				<linearGradient id="SVGID_00000055693154614649957870000009524013788004961971_" gradientUnits="userSpaceOnUse" x1="47.0855" y1="127.892" x2="47.0855" y2="26.1054">
				<stop  offset="8.524463e-07" style="stop-color:#E8F1F2"/>
				<stop  offset="1" style="stop-color:#D3E3F4"/>
			</linearGradient>
			<polygon style="fill:url(#SVGID_00000055693154614649957870000009524013788004961971_);" points="65.43,92.37 27.05,55.56 
				28.74,53.8 67.13,90.61 			"/>
		</g>
		<g>
			
				<linearGradient id="SVGID_00000042725175708800777550000016228304504022088593_" gradientUnits="userSpaceOnUse" x1="52.7345" y1="127.892" x2="52.7345" y2="26.1054">
				<stop  offset="8.524463e-07" style="stop-color:#E8F1F2"/>
				<stop  offset="1" style="stop-color:#D3E3F4"/>
			</linearGradient>
			<polygon style="fill:url(#SVGID_00000042725175708800777550000016228304504022088593_);" points="40.22,119.59 38.15,118.29 
				65.24,75.05 67.31,76.34 			"/>
		</g>
		<g>
			
				<linearGradient id="SVGID_00000180338171741783242960000007104506715552966320_" gradientUnits="userSpaceOnUse" x1="52.5311" y1="127.892" x2="52.5311" y2="26.1054">
				<stop  offset="8.524463e-07" style="stop-color:#E8F1F2"/>
				<stop  offset="1" style="stop-color:#D3E3F4"/>
			</linearGradient>
			<polygon style="fill:url(#SVGID_00000180338171741783242960000007104506715552966320_);" points="51.51,128.68 51.11,98.19 
				53.55,98.16 53.96,128.64 			"/>
		</g>
		<g>
			
				<linearGradient id="SVGID_00000065058386043492317570000001884646028934080686_" gradientUnits="userSpaceOnUse" x1="18.2491" y1="127.892" x2="18.2491" y2="26.1054">
				<stop  offset="8.524463e-07" style="stop-color:#E8F1F2"/>
				<stop  offset="1" style="stop-color:#D3E3F4"/>
			</linearGradient>
			<circle style="fill:url(#SVGID_00000065058386043492317570000001884646028934080686_);" cx="18.25" cy="77.23" r="4.9"/>
		</g>
		<g>
			
				<linearGradient id="SVGID_00000160177479078016819550000016474280928037280662_" gradientUnits="userSpaceOnUse" x1="45.4154" y1="127.892" x2="45.4154" y2="26.1054">
				<stop  offset="8.524463e-07" style="stop-color:#E8F1F2"/>
				<stop  offset="1" style="stop-color:#D3E3F4"/>
			</linearGradient>
			<circle style="fill:url(#SVGID_00000160177479078016819550000016474280928037280662_);" cx="45.42" cy="71.59" r="5.23"/>
		</g>
		<g>
			
				<linearGradient id="SVGID_00000145749384071455773650000004760498497457503117_" gradientUnits="userSpaceOnUse" x1="49.6291" y1="127.892" x2="49.6291" y2="26.1054">
				<stop  offset="8.524463e-07" style="stop-color:#E8F1F2"/>
				<stop  offset="1" style="stop-color:#D3E3F4"/>
			</linearGradient>
			<circle style="fill:url(#SVGID_00000145749384071455773650000004760498497457503117_);" cx="49.63" cy="48.06" r="4.14"/>
		</g>
		<g>
			
				<linearGradient id="SVGID_00000103972115637136014320000005498916510286700161_" gradientUnits="userSpaceOnUse" x1="52.3273" y1="127.892" x2="52.3273" y2="26.1054">
				<stop  offset="8.524463e-07" style="stop-color:#E8F1F2"/>
				<stop  offset="1" style="stop-color:#D3E3F4"/>
			</linearGradient>
			<circle style="fill:url(#SVGID_00000103972115637136014320000005498916510286700161_);" cx="52.33" cy="98.37" r="4.56"/>
		</g>
		<g>
			
				<linearGradient id="SVGID_00000076581932406623190040000000098808801248928685_" gradientUnits="userSpaceOnUse" x1="35.3217" y1="127.892" x2="35.3217" y2="26.1054">
				<stop  offset="8.524463e-07" style="stop-color:#E8F1F2"/>
				<stop  offset="1" style="stop-color:#D3E3F4"/>
			</linearGradient>
			<circle style="fill:url(#SVGID_00000076581932406623190040000000098808801248928685_);" cx="35.32" cy="87.82" r="3.87"/>
		</g>
		<g>
			
				<linearGradient id="SVGID_00000152244381814320451390000008419469061013842863_" gradientUnits="userSpaceOnUse" x1="27.8917" y1="127.892" x2="27.8917" y2="26.1054">
				<stop  offset="8.524463e-07" style="stop-color:#E8F1F2"/>
				<stop  offset="1" style="stop-color:#D3E3F4"/>
			</linearGradient>
			<circle style="fill:url(#SVGID_00000152244381814320451390000008419469061013842863_);" cx="27.89" cy="99.38" r="3.16"/>
		</g>
		<g>
			
				<linearGradient id="SVGID_00000008118642484301648760000013687838130787453371_" gradientUnits="userSpaceOnUse" x1="39.1895" y1="127.892" x2="39.1895" y2="26.1054">
				<stop  offset="8.524463e-07" style="stop-color:#E8F1F2"/>
				<stop  offset="1" style="stop-color:#D3E3F4"/>
			</linearGradient>
			<circle style="fill:url(#SVGID_00000008118642484301648760000013687838130787453371_);" cx="39.19" cy="118.94" r="2.37"/>
		</g>
		<g>
			
				<linearGradient id="SVGID_00000043431048512731191030000003179360236944972417_" gradientUnits="userSpaceOnUse" x1="27.8917" y1="127.892" x2="27.8917" y2="26.1054">
				<stop  offset="8.524463e-07" style="stop-color:#E8F1F2"/>
				<stop  offset="1" style="stop-color:#D3E3F4"/>
			</linearGradient>
			<circle style="fill:url(#SVGID_00000043431048512731191030000003179360236944972417_);" cx="27.89" cy="54.68" r="2.67"/>
		</g>
		<g>
			
				<linearGradient id="SVGID_00000072271535537052151230000016905470796994622140_" gradientUnits="userSpaceOnUse" x1="38.825" y1="127.892" x2="38.825" y2="26.1054">
				<stop  offset="8.524463e-07" style="stop-color:#E8F1F2"/>
				<stop  offset="1" style="stop-color:#D3E3F4"/>
			</linearGradient>
			<circle style="fill:url(#SVGID_00000072271535537052151230000016905470796994622140_);" cx="38.83" cy="35.73" r="2.73"/>
		</g>
		<g>
			
				<linearGradient id="SVGID_00000163774186816297448930000004534056621368040889_" gradientUnits="userSpaceOnUse" x1="47.5601" y1="127.892" x2="47.5601" y2="26.1054">
				<stop  offset="8.524463e-07" style="stop-color:#E8F1F2"/>
				<stop  offset="1" style="stop-color:#D3E3F4"/>
			</linearGradient>
			<polygon style="fill:url(#SVGID_00000163774186816297448930000004534056621368040889_);" points="46.69,72.53 44.29,72.12 
				48.43,47.86 50.83,48.27 			"/>
		</g>
	</g>
	
		<linearGradient id="SVGID_00000165227461759034223070000006808828544336852402_" gradientUnits="userSpaceOnUse" x1="44.1657" y1="121.0596" x2="44.1657" y2="27.6076">
		<stop  offset="5.327789e-09" style="stop-color:#8680BC"/>
		<stop  offset="1" style="stop-color:#ABE0F9"/>
	</linearGradient>
	<path style="fill:url(#SVGID_00000165227461759034223070000006808828544336852402_);" d="M56.86,97.93
		c-0.01-0.07-0.01-0.14-0.02-0.21c-0.01-0.07-0.02-0.14-0.04-0.21c-0.01-0.07-0.03-0.14-0.05-0.21c-0.01-0.05-0.02-0.1-0.04-0.14
		c-0.01-0.05-0.03-0.1-0.04-0.14c-0.03-0.1-0.07-0.2-0.12-0.3v0c-0.23-0.59-0.58-1.12-1.02-1.56c-0.58-0.58-1.31-1-2.14-1.2
		c-0.35-0.08-0.7-0.12-1.07-0.12c-1.12,0-2.15,0.41-2.96,1.12l-0.04-0.02l-1.11-0.67l-9.14-5.56c0,0,0,0,0-0.01
		c0.07-0.27,0.1-0.58,0.1-0.87c0-0.06,0-0.13-0.01-0.2c0-0.07-0.01-0.13-0.01-0.2c-0.01-0.13-0.03-0.26-0.06-0.38
		c-0.01-0.06-0.02-0.13-0.04-0.19c-0.05-0.19-0.11-0.36-0.18-0.54c-0.02-0.06-0.05-0.12-0.08-0.17c-0.12-0.27-0.28-0.52-0.47-0.75
		l5.63-8.77l0.01-0.02c0.46,0.15,0.95,0.22,1.44,0.22c0.35,0,0.7-0.04,1.04-0.1c0.17-0.04,0.33-0.08,0.49-0.12
		c0.41-0.12,0.79-0.29,1.14-0.51c0.07-0.05,0.14-0.09,0.21-0.13c0,0,0,0,0.01,0c0.06-0.05,0.13-0.09,0.19-0.14
		c0.07-0.05,0.13-0.1,0.2-0.15c0.19-0.15,0.37-0.32,0.54-0.5c0.06-0.06,0.11-0.12,0.16-0.18c0.06-0.06,0.11-0.13,0.16-0.19
		c0.04-0.05,0.07-0.09,0.11-0.14c0.08-0.11,0.15-0.22,0.22-0.33c0.03-0.05,0.06-0.09,0.09-0.14c0.01-0.02,0.03-0.05,0.04-0.07
		c0.04-0.07,0.08-0.15,0.12-0.23c0.04-0.08,0.07-0.16,0.11-0.23c0.03-0.08,0.06-0.16,0.09-0.23c0.2-0.52,0.31-1.07,0.32-1.65V71.6
		c0-0.09,0-0.18-0.01-0.27c0-0.09-0.01-0.17-0.02-0.26c0-0.07-0.01-0.13-0.02-0.2c-0.01-0.07-0.02-0.14-0.04-0.21
		c-0.01-0.08-0.03-0.15-0.05-0.23c-0.02-0.1-0.05-0.19-0.07-0.28c-0.08-0.28-0.18-0.54-0.3-0.8v0c-0.05-0.1-0.1-0.2-0.16-0.3
		c-0.17-0.3-0.38-0.58-0.6-0.84l0,0c-0.17-0.21-0.36-0.41-0.57-0.58c-0.14-0.12-0.29-0.23-0.44-0.34c-0.22-0.15-0.46-0.28-0.71-0.39
		c0,0,0,0,0,0l0.18-1.11l0,0l0.15-0.89l2.17-12.72v-0.01c0,0,0,0,0.01,0c0.2-0.03,0.4-0.06,0.59-0.12c0.12-0.03,0.23-0.07,0.34-0.12
		c0.07-0.02,0.14-0.06,0.2-0.09c0.08-0.03,0.16-0.07,0.24-0.11c0.08-0.04,0.16-0.08,0.23-0.13c0.06-0.04,0.11-0.07,0.16-0.11
		c0.09-0.06,0.18-0.12,0.27-0.2c0.05-0.03,0.1-0.07,0.15-0.12c0.07-0.06,0.13-0.12,0.2-0.18c0,0,0.01-0.01,0.01-0.01
		c0.07-0.07,0.13-0.14,0.2-0.21c0.01-0.02,0.03-0.05,0.06-0.07c0.11-0.14,0.22-0.29,0.32-0.45c0,0,0.01-0.01,0.01-0.02h0
		c0.07-0.12,0.15-0.24,0.21-0.37c0.27-0.54,0.41-1.14,0.41-1.78c0-0.29-0.03-0.58-0.09-0.85c-0.01-0.07-0.03-0.13-0.05-0.2
		c-0.03-0.12-0.07-0.24-0.11-0.35c-0.06-0.14-0.12-0.29-0.19-0.43c-0.14-0.29-0.3-0.55-0.5-0.8c0,0-0.01-0.01-0.01-0.02
		c-0.33-0.4-0.72-0.72-1.17-0.94c0,0,0,0,0,0c-0.46-0.27-0.95-0.45-1.48-0.52c-0.09-0.01-0.18-0.02-0.27-0.03
		c-0.09,0-0.17-0.01-0.26-0.01h0c-0.36,0-0.73,0.05-1.08,0.14c-0.17,0.05-0.34,0.11-0.5,0.17c-0.03,0.01-0.06,0.03-0.1,0.04v0h0
		l-6.59-7.5l0,0c0-0.01,0.01-0.02,0.01-0.03c0.02-0.04,0.04-0.07,0.05-0.11c0.11-0.28,0.17-0.59,0.17-0.91
		c0-0.19-0.02-0.38-0.06-0.56c-0.02-0.12-0.06-0.25-0.11-0.37c0-0.02,0-0.03-0.02-0.05c-0.13-0.36-0.35-0.69-0.62-0.96
		c-0.12-0.12-0.26-0.23-0.41-0.34c-0.07-0.05-0.15-0.1-0.23-0.14c-0.19-0.1-0.4-0.18-0.62-0.23C39.29,33.03,39.06,33,38.83,33
		c-0.94,0-1.77,0.47-2.27,1.2c-0.1,0.15-0.18,0.3-0.25,0.47c-0.04,0.08-0.07,0.17-0.09,0.25c-0.02,0.07-0.05,0.15-0.06,0.23
		c-0.04,0.19-0.06,0.39-0.06,0.59c0,0.58,0.18,1.11,0.49,1.55c0.06,0.07,0.11,0.14,0.17,0.21c0.49,0.58,1.24,0.95,2.07,0.95
		c0.22,0,0.44-0.02,0.66-0.07l6.61,7.54l0.01,0.01c-0.39,0.61-0.61,1.37-0.61,2.15c0,0.08,0,0.17,0,0.24
		c0.01,0.08,0.01,0.16,0.02,0.24c0.01,0.08,0.02,0.16,0.03,0.23c0.03,0.16,0.06,0.3,0.11,0.45c0.01,0.02,0.01,0.03,0.01,0.05
		c0.07,0.2,0.15,0.4,0.25,0.58c0,0,0,0,0,0.01c0.13,0.29,0.29,0.55,0.48,0.79c0.32,0.4,0.72,0.73,1.18,0.97l0.22-0.19v0.01l0,0.03
		l-0.04,0.25l0,0.02l-2.49,14.61c0,0,0,0-0.01,0c-0.08,0-0.17,0.01-0.25,0.01c-0.17,0.01-0.35,0.03-0.51,0.06
		c-0.09,0.01-0.17,0.03-0.25,0.05c-0.09,0.02-0.18,0.04-0.27,0.06c-0.07,0.02-0.13,0.04-0.2,0.06c-0.4,0.13-0.77,0.3-1.12,0.52
		c-0.13,0.08-0.25,0.17-0.37,0.26c-0.2,0.15-0.39,0.31-0.57,0.49c-0.24,0.23-0.45,0.49-0.64,0.77c-0.05,0.07-0.1,0.14-0.14,0.21
		c-0.47,0.77-0.75,1.67-0.76,2.64v0.08c0,0.73,0.15,1.41,0.41,2.03c0.04,0.09,0.08,0.18,0.12,0.26c0,0,0,0,0,0.01
		c0.07,0.14,0.15,0.29,0.23,0.42c0.25,0.41,0.56,0.77,0.9,1.08c0,0,0,0,0.01,0.01l-0.01,0.01l-5.56,8.65l0,0.01c0,0-0.01,0-0.01,0
		c-0.31-0.07-0.63-0.12-0.96-0.12c-0.12,0-0.23,0-0.35,0.01c-0.12,0.01-0.23,0.03-0.34,0.05c-0.11,0.02-0.22,0.05-0.33,0.07
		c-0.11,0.03-0.21,0.07-0.32,0.11c-0.41,0.16-0.79,0.39-1.12,0.68l0,0c-0.56,0.45-0.98,1.07-1.21,1.77c0,0,0,0.01,0,0.01
		c-0.03,0.1-0.06,0.19-0.07,0.29h0c0,0,0,0,0,0.01c-0.01,0.03-0.02,0.06-0.02,0.1c-0.02,0.1-0.04,0.21-0.05,0.32
		c-0.02,0.14-0.02,0.29-0.02,0.44c0,0.1,0,0.21,0.01,0.31c0.01,0.13,0.03,0.27,0.05,0.4c0.01,0.09,0.03,0.18,0.06,0.26
		c0.09,0.35,0.22,0.67,0.4,0.96c0.1,0.17,0.22,0.34,0.35,0.49c0,0.01,0.01,0.01,0.01,0.02c0.26,0.32,0.56,0.59,0.91,0.81
		c0.34,0.22,0.72,0.38,1.14,0.48h0c0.29,0.07,0.61,0.12,0.93,0.12c0.95,0,1.83-0.34,2.49-0.9l0.01,0l7.56,4.59L48,96.96l0.01,0.01
		l0.24,0.15h-0.01l-0.29,0.02v0c-0.04,0.1-0.07,0.19-0.09,0.29c-0.02,0.07-0.04,0.15-0.05,0.23c-0.02,0.15-0.04,0.3-0.05,0.46
		c-0.01,0.08-0.01,0.16-0.01,0.23c0,0.08,0,0.16,0.01,0.23c0.01,0.16,0.02,0.31,0.05,0.46c0,0.04,0.01,0.07,0.02,0.11
		c0.03,0.14,0.07,0.28,0.12,0.42v0c0.07,0.29,0.18,0.57,0.31,0.84c0.06,0.12,0.12,0.24,0.2,0.36c0.11,0.17,0.22,0.33,0.35,0.48
		c0.32,0.4,0.71,0.73,1.15,0.99c0.19,0.12,0.38,0.22,0.59,0.3c0.04,0.02,0.09,0.04,0.13,0.05c0.05,0.02,0.1,0.04,0.14,0.05v0
		c0.02,0,0.04,0.01,0.06,0.02c0.09,0.03,0.18,0.06,0.27,0.08v0l0.2,24.35l0.02,2.45c0.33,0.02,0.65,0.03,0.99,0.03
		c0.49,0,0.98-0.02,1.46-0.07l-0.01-0.89l-0.01-1.56l-0.2-24.35v-0.02h0c0.17-0.04,0.33-0.09,0.49-0.15
		c0.07-0.03,0.14-0.06,0.2-0.09c0.47-0.21,0.9-0.52,1.26-0.88c0,0,0,0,0.01-0.01c0.2-0.2,0.39-0.42,0.54-0.67
		c0.03-0.05,0.06-0.09,0.09-0.13c0.02-0.03,0.04-0.06,0.06-0.09l0.08-0.15c0.01-0.02,0.02-0.04,0.03-0.06
		c0.17-0.33,0.29-0.69,0.37-1.05c0,0,0,0,0-0.01l0.07-0.27c0.05-0.27,0.07-0.51,0.07-0.78C56.88,98.22,56.87,98.07,56.86,97.93z"/>
	<g>
		<path class="st22" d="M89.79,50.12c0,0-0.09,0.12-0.3,0.29c-0.17,0.18-0.47,0.41-0.89,0.71c-0.39,0.29-0.86,0.59-1.36,0.86
			c-0.53,0.29-1.19,0.53-1.96,0.71c-0.77,0.21-1.54,0.3-2.37,0.3c-2.64,0-4.87-0.89-6.68-2.7c-1.78-1.84-2.7-4.07-2.7-6.76
			c0-2.67,0.92-4.89,2.7-6.74c1.81-1.81,4.03-2.7,6.68-2.7c0.77,0,1.54,0.09,2.31,0.27c0.75,0.17,1.37,0.38,1.84,0.62
			c0.47,0.24,0.92,0.51,1.36,0.8c0.42,0.33,0.71,0.53,0.83,0.65c0.15,0.12,0.23,0.21,0.29,0.27l0.77-0.71L90,35.7
			c-0.21-0.21-0.51-0.47-0.95-0.77c-0.41-0.29-0.92-0.59-1.45-0.86c-0.57-0.29-1.28-0.56-2.11-0.77c-0.83-0.21-1.66-0.3-2.55-0.3
			c-2.94,0-5.46,1.04-7.5,3.08c-2.05,2.05-3.06,4.54-3.06,7.48c0,2.97,1.01,5.46,3.02,7.48c2.05,2.04,4.54,3.05,7.48,3.05
			c0.92,0,1.81-0.12,2.67-0.35c0.89-0.24,1.6-0.51,2.14-0.77c0.53-0.29,1.07-0.62,1.57-1.01c0.5-0.39,0.8-0.62,0.95-0.77
			c0.12-0.12,0.24-0.24,0.33-0.36L89.79,50.12z"/>
		<path class="st22" d="M94.93,33.3v1.04h12.61c1.16,0,1.16-1.04,1.16-1.04H94.93z M107.83,52.76c-1.13,0-11.72,0-11.72,0V43.5
			c0,0,9.05,0,9.97,0c1.16,0,1.16-0.95,1.16-0.95H94.93V53.8h14.06C108.99,53.8,108.99,52.76,107.83,52.76z"/>
		<path class="st22" d="M94.05,68.45v1.04h12.61c1.16,0,1.16-1.04,1.16-1.04H94.05z M106.96,87.92c-1.13,0-11.72,0-11.72,0v-9.26
			c0,0,9.05,0,9.97,0c1.16,0,1.16-0.95,1.16-0.95H94.05v11.25h14.06C108.11,88.96,108.11,87.92,106.96,87.92z"/>
		<path class="st22" d="M83.12,80.41c1.63-0.24,2.96-0.89,3.97-1.99c1.01-1.13,1.55-2.44,1.55-3.98c0-1.72-0.63-3.14-1.84-4.27
			c-1.22-1.13-2.79-1.72-4.75-1.72h-8.22v20.51h1.16V69.49h6.88c1.66,0,3.02,0.47,4.04,1.39c1.04,0.95,1.54,2.14,1.54,3.59
			c0,1.45-0.51,2.64-1.54,3.56c-1.01,0.95-2.38,1.42-4.04,1.42h-3.68c0,0,0.01,1.01,0.88,1.01c0.99,0,2.61,0,2.61,0
			s5.29,7.06,5.82,7.77c0.65,0.82,1.98,0.71,1.98,0.71L83.12,80.41z"/>
		<path class="st22" d="M103.35,115.59c1.63-0.23,2.97-0.89,3.98-1.98c1.01-1.13,1.54-2.44,1.54-3.98c0-1.72-0.63-3.14-1.84-4.27
			c-1.22-1.13-2.79-1.72-4.75-1.72h-8.22v20.5h1.16v-19.46h6.88c1.66,0,3.03,0.47,4.04,1.39c1.04,0.95,1.54,2.14,1.54,3.59
			c0,1.45-0.51,2.64-1.54,3.56c-1.01,0.95-2.38,1.42-4.04,1.42h-3.68c0,0,0.01,1.01,0.88,1.01c0.99,0,2.62,0,2.62,0
			s5.29,7.07,5.81,7.78c0.65,0.82,1.99,0.71,1.99,0.71L103.35,115.59z"/>
		<path class="st22" d="M87.42,115.21c-0.8-0.95-1.87-1.6-3.2-1.9c1.04-0.42,1.87-1.01,2.46-1.87c0.63-0.83,0.92-1.78,0.92-2.82
			c0-1.42-0.53-2.61-1.6-3.56c-1.1-0.95-2.49-1.42-4.21-1.42h-7.95v20.5h8.37c1.9,0,3.41-0.53,4.63-1.6
			c1.19-1.07,1.81-2.38,1.81-3.95C88.64,117.29,88.22,116.16,87.42,115.21z M85.97,121.77c-0.98,0.89-2.23,1.34-3.77,1.34h-7.21
			v-18.45h6.74c1.36,0,2.49,0.41,3.38,1.19c0.89,0.8,1.3,1.78,1.3,2.96c0,1.13-0.41,2.11-1.3,2.91c-0.89,0.8-2.02,1.18-3.38,1.18
			h-3.53c0,0-0.06,0.95,0.85,0.95c0.49,0,3.16,0,3.16,0c1.54,0,2.79,0.44,3.77,1.34c0.98,0.89,1.48,1.98,1.48,3.29
			C87.45,119.81,86.94,120.91,85.97,121.77z"/>
		<path class="st22" d="M130.85,106.4c-2.02-2.05-4.51-3.06-7.48-3.06c-2.94,0-5.43,1.04-7.48,3.09c-2.08,2.04-3.08,4.54-3.08,7.48
			c0,2.96,1.01,5.46,3.06,7.48c2.02,2.04,4.51,3.05,7.44,3.05c2.97,0,5.46-1.04,7.51-3.08c2.04-2.05,3.08-4.54,3.08-7.5
			C133.91,110.91,132.9,108.42,130.85,106.4z M130.03,120.61c-1.81,1.84-4.04,2.73-6.68,2.73c-2.64,0-4.84-0.89-6.65-2.73
			c-1.81-1.81-2.73-4.03-2.73-6.74c0-2.67,0.92-4.89,2.73-6.74c1.81-1.81,4.01-2.7,6.65-2.7c2.64,0,4.87,0.89,6.68,2.7
			c1.81,1.84,2.7,4.07,2.7,6.74C132.72,116.58,131.83,118.8,130.03,120.61z"/>
	</g>
</g>
</svg>
